# xmcd
#
# Track frame offsets: 
#        150
#        16612
#        31390
#        42750
#        54412
#        70425
#        86737
#        104062
#        115797
#        130052
#        141490
#        152812
#
# Disc length: 2221 seconds
#
# Revision: 2
# Processed by: cddbd v1.5.2PL0 Copyright (c) Steve Scherf et al.
# Submitted via: ExactAudioCopy v0.99pb5
#
DISCID=a208ab0c
DTITLE=Die Flippers - Komm auf meine Insel
DYEAR=1987
DGENRE=Schlager
TTITLE0=Komm auf meine Insel
TTITLE1=Maja
TTITLE2=Willst du mit mir geh'n
TTITLE3=Sweet City Girl
TTITLE4=Hello My Love
TTITLE5=Bleib mir treu
TTITLE6=Was hast du am Sonntag allein gemacht
TTITLE7=Cindy, tanz doch einmal mit mir
TTITLE8=Mädchen Namenlos
TTITLE9=Träume der Erinnerung
TTITLE10=Oh la la
TTITLE11=Bye bye bis morgen
EXTD=
EXTT0=
EXTT1=
EXTT2=
EXTT3=
EXTT4=
EXTT5=
EXTT6=
EXTT7=
EXTT8=
EXTT9=
EXTT10=
EXTT11=
PLAYORDER=
